<mxfile host="app.diagrams.net" modified="2023-10-26T11:16:28.356Z" agent="Mozilla/5.0 (Windows NT 10.0; Win64; x64) AppleWebKit/537.36 (KHTML, like Gecko) Chrome/118.0.0.0 Safari/537.36" etag="SJY7RmozzHIU0j5waxrG" version="22.0.8" type="github">
  <diagram name="Page-1" id="6cOa9CmsmSzMtdiCjr-9">
    <mxGraphModel dx="880" dy="446" grid="1" gridSize="10" guides="1" tooltips="1" connect="1" arrows="1" fold="1" page="1" pageScale="1" pageWidth="850" pageHeight="1100" math="0" shadow="0">
      <root>
        <mxCell id="0" />
        <mxCell id="1" parent="0" />
        <mxCell id="ttqobVZoxJ2Kmyl05ghQ-10" value="" style="image;aspect=fixed;html=1;points=[];align=center;fontSize=12;image=img/lib/azure2/networking/DNS_Zones.svg;" vertex="1" parent="1">
          <mxGeometry x="155" width="64" height="64" as="geometry" />
        </mxCell>
        <mxCell id="ttqobVZoxJ2Kmyl05ghQ-12" value="DNS" style="text;html=1;align=center;verticalAlign=middle;resizable=0;points=[];autosize=1;strokeColor=#b85450;fillColor=#f8cecc;rotation=0;direction=west;" vertex="1" parent="1">
          <mxGeometry x="160" y="60" width="50" height="30" as="geometry" />
        </mxCell>
        <mxCell id="ttqobVZoxJ2Kmyl05ghQ-26" value="" style="edgeStyle=orthogonalEdgeStyle;rounded=0;orthogonalLoop=1;jettySize=auto;html=1;" edge="1" parent="1" source="ttqobVZoxJ2Kmyl05ghQ-13" target="ttqobVZoxJ2Kmyl05ghQ-19">
          <mxGeometry relative="1" as="geometry">
            <Array as="points">
              <mxPoint x="170" y="230" />
              <mxPoint x="80" y="230" />
            </Array>
          </mxGeometry>
        </mxCell>
        <mxCell id="ttqobVZoxJ2Kmyl05ghQ-13" value="User/Clint" style="text;html=1;align=center;verticalAlign=middle;resizable=0;points=[];autosize=1;strokeColor=#b85450;fillColor=#f8cecc;" vertex="1" parent="1">
          <mxGeometry x="145" y="230" width="80" height="30" as="geometry" />
        </mxCell>
        <mxCell id="ttqobVZoxJ2Kmyl05ghQ-19" value="where is&amp;nbsp;www.foobar.com" style="text;html=1;align=center;verticalAlign=middle;resizable=0;points=[];autosize=1;fillColor=#fff2cc;strokeColor=#d6b656;" vertex="1" parent="1">
          <mxGeometry y="150" width="160" height="30" as="geometry" />
        </mxCell>
        <mxCell id="ttqobVZoxJ2Kmyl05ghQ-32" style="edgeStyle=orthogonalEdgeStyle;rounded=0;orthogonalLoop=1;jettySize=auto;html=1;" edge="1" parent="1" source="ttqobVZoxJ2Kmyl05ghQ-28" target="ttqobVZoxJ2Kmyl05ghQ-13">
          <mxGeometry relative="1" as="geometry">
            <Array as="points">
              <mxPoint x="220" y="165" />
              <mxPoint x="220" y="260" />
              <mxPoint x="195" y="260" />
            </Array>
          </mxGeometry>
        </mxCell>
        <mxCell id="ttqobVZoxJ2Kmyl05ghQ-28" value="www.foobar.com at&lt;br&gt;8.8.8.8" style="text;html=1;align=center;verticalAlign=middle;resizable=0;points=[];autosize=1;fillColor=#fff2cc;strokeColor=#d6b656;" vertex="1" parent="1">
          <mxGeometry x="200" y="140" width="120" height="40" as="geometry" />
        </mxCell>
        <mxCell id="ttqobVZoxJ2Kmyl05ghQ-31" style="edgeStyle=orthogonalEdgeStyle;rounded=0;orthogonalLoop=1;jettySize=auto;html=1;entryX=0.583;entryY=0.125;entryDx=0;entryDy=0;entryPerimeter=0;" edge="1" parent="1" source="ttqobVZoxJ2Kmyl05ghQ-12" target="ttqobVZoxJ2Kmyl05ghQ-28">
          <mxGeometry relative="1" as="geometry" />
        </mxCell>
        <mxCell id="ttqobVZoxJ2Kmyl05ghQ-33" value="" style="whiteSpace=wrap;html=1;aspect=fixed;" vertex="1" parent="1">
          <mxGeometry x="470" y="20" width="380" height="380" as="geometry" />
        </mxCell>
        <mxCell id="ttqobVZoxJ2Kmyl05ghQ-34" value="" style="whiteSpace=wrap;html=1;aspect=fixed;" vertex="1" parent="1">
          <mxGeometry x="139" y="262.4" width="80" height="80" as="geometry" />
        </mxCell>
        <mxCell id="ttqobVZoxJ2Kmyl05ghQ-35" value="" style="image;points=[];aspect=fixed;html=1;align=center;shadow=0;dashed=0;image=img/lib/allied_telesis/computer_and_terminals/Personal_Computer_with_Server.svg;" vertex="1" parent="1">
          <mxGeometry x="145" y="271.2" width="62.400000000000006" height="62.400000000000006" as="geometry" />
        </mxCell>
        <mxCell id="ttqobVZoxJ2Kmyl05ghQ-36" style="edgeStyle=orthogonalEdgeStyle;rounded=0;orthogonalLoop=1;jettySize=auto;html=1;exitX=0.5;exitY=1;exitDx=0;exitDy=0;" edge="1" parent="1" source="ttqobVZoxJ2Kmyl05ghQ-33" target="ttqobVZoxJ2Kmyl05ghQ-33">
          <mxGeometry relative="1" as="geometry" />
        </mxCell>
        <mxCell id="ttqobVZoxJ2Kmyl05ghQ-37" style="edgeStyle=orthogonalEdgeStyle;rounded=0;orthogonalLoop=1;jettySize=auto;html=1;entryX=0.88;entryY=-0.1;entryDx=0;entryDy=0;entryPerimeter=0;" edge="1" parent="1" source="ttqobVZoxJ2Kmyl05ghQ-19" target="ttqobVZoxJ2Kmyl05ghQ-12">
          <mxGeometry relative="1" as="geometry" />
        </mxCell>
        <mxCell id="ttqobVZoxJ2Kmyl05ghQ-52" value="" style="edgeStyle=orthogonalEdgeStyle;rounded=0;orthogonalLoop=1;jettySize=auto;html=1;" edge="1" parent="1" source="ttqobVZoxJ2Kmyl05ghQ-46" target="ttqobVZoxJ2Kmyl05ghQ-33">
          <mxGeometry relative="1" as="geometry">
            <Array as="points">
              <mxPoint x="450" y="286" />
              <mxPoint x="450" y="286" />
            </Array>
          </mxGeometry>
        </mxCell>
        <mxCell id="ttqobVZoxJ2Kmyl05ghQ-46" value="HTTP Request" style="text;html=1;align=center;verticalAlign=middle;resizable=0;points=[];autosize=1;strokeColor=#666666;fillColor=#f5f5f5;rotation=0;direction=west;fontColor=#333333;" vertex="1" parent="1">
          <mxGeometry x="290" y="271.2" width="100" height="30" as="geometry" />
        </mxCell>
        <mxCell id="ttqobVZoxJ2Kmyl05ghQ-58" style="edgeStyle=orthogonalEdgeStyle;rounded=0;orthogonalLoop=1;jettySize=auto;html=1;" edge="1" parent="1" source="ttqobVZoxJ2Kmyl05ghQ-48">
          <mxGeometry relative="1" as="geometry">
            <mxPoint x="220" y="335" as="targetPoint" />
          </mxGeometry>
        </mxCell>
        <mxCell id="ttqobVZoxJ2Kmyl05ghQ-48" value="HTTP Response" style="text;html=1;align=center;verticalAlign=middle;resizable=0;points=[];autosize=1;strokeColor=#666666;fillColor=#f5f5f5;rotation=0;direction=west;fontColor=#333333;" vertex="1" parent="1">
          <mxGeometry x="290" y="319.99999999999994" width="110" height="30" as="geometry" />
        </mxCell>
        <mxCell id="ttqobVZoxJ2Kmyl05ghQ-59" value="" style="endArrow=none;html=1;rounded=0;exitX=0.98;exitY=0.34;exitDx=0;exitDy=0;exitPerimeter=0;entryX=1;entryY=0.333;entryDx=0;entryDy=0;entryPerimeter=0;" edge="1" parent="1" source="ttqobVZoxJ2Kmyl05ghQ-46" target="ttqobVZoxJ2Kmyl05ghQ-34">
          <mxGeometry width="50" height="50" relative="1" as="geometry">
            <mxPoint x="400" y="220" as="sourcePoint" />
            <mxPoint x="450" y="170" as="targetPoint" />
          </mxGeometry>
        </mxCell>
        <mxCell id="ttqobVZoxJ2Kmyl05ghQ-60" value="" style="endArrow=none;html=1;rounded=0;exitX=-0.027;exitY=0.533;exitDx=0;exitDy=0;exitPerimeter=0;entryX=-0.008;entryY=0.826;entryDx=0;entryDy=0;entryPerimeter=0;" edge="1" parent="1" source="ttqobVZoxJ2Kmyl05ghQ-48" target="ttqobVZoxJ2Kmyl05ghQ-33">
          <mxGeometry width="50" height="50" relative="1" as="geometry">
            <mxPoint x="400" y="220" as="sourcePoint" />
            <mxPoint x="450" y="170" as="targetPoint" />
          </mxGeometry>
        </mxCell>
      </root>
    </mxGraphModel>
  </diagram>
</mxfile>
